<?xml version="1.0" encoding="UTF-8"?><svg id="Capa_2" xmlns="http://www.w3.org/2000/svg" viewBox="0 0 155.54 187.69"><defs><style>.cls-1{fill:#7149c9;}.cls-2{fill:#05cca6;}</style></defs><g id="Capa_1-2"><path class="cls-1" d="M104.73,159.89c-4.46,29.31-35.14,30.04-51.57,23.35C15.99,168.1-.32,192.1,0,186.95s26.08-25.65,54.76-12.24c18.35,8.58,36.33-2.09,40.7-15.05"/><path class="cls-2" d="M141.26,21.47C114.24-11.43,64.87-5.66,46.76,32.91c-18.2,38.75,4.59,92.19,43.45,108.13-.77,7.68-5.88,10.57-.53,17.52,1.69,2.2,6.18-.03,5.79,1.1l9.26.23c.56-1.88,5.06-.44,5.54-5.55.38-4.1-3.85-9.7-2.88-12.73,9.4-5.44,17.18-10.4,24.41-18.66,23.94-27.37,34.26-71.28,9.46-101.48ZM82.08,52.82l-5.22,6.12c-.99,1.16-2.87.37-2.76-1.14l.63-8.02c.05-.68-.34-1.31-.96-1.57l-7.43-3.07c-1.4-.58-1.24-2.62.23-2.97l7.82-1.88c.66-.16,1.14-.73,1.2-1.4l.63-8.02c.12-1.51,2.1-1.99,2.9-.7l4.21,6.85c.36.58,1.04.86,1.7.7l7.82-1.88c1.48-.36,2.55,1.39,1.56,2.54l-5.22,6.12c-.44.52-.5,1.26-.14,1.84l4.21,6.85c.79,1.29-.53,2.85-1.94,2.27l-7.43-3.07c-.63-.26-1.35-.09-1.79.43ZM109.54,97.95l-6.17.91c-.67.1-1.2.62-1.32,1.29l-1.04,6.15c-.25,1.5-2.27,1.8-2.95.44l-2.78-5.59c-.3-.61-.96-.95-1.63-.85l-6.18.91c-1.5.22-2.41-1.61-1.33-2.67l4.46-4.36c.49-.48.61-1.21.31-1.82l-2.78-5.59c-.68-1.36.78-2.79,2.13-2.09l5.53,2.89c.6.31,1.34.21,1.82-.27l4.46-4.37c1.08-1.06,2.9-.12,2.64,1.38l-1.04,6.15c-.11.67.22,1.34.82,1.65l5.53,2.89c1.35.7,1.01,2.72-.5,2.94ZM134.35,68.92l-3.51,1.56c-.62.28-.99.92-.92,1.6l.41,3.82c.16,1.51-1.71,2.34-2.72,1.22l-2.58-2.86c-.45-.5-1.18-.66-1.8-.38l-3.52,1.57c-1.39.62-2.75-.9-2-2.21l1.92-3.33c.34-.59.26-1.33-.19-1.83l-2.58-2.85c-1.02-1.13,0-2.9,1.49-2.58l3.76.8c.66.14,1.34-.16,1.68-.75l1.92-3.33c.76-1.32,2.76-.89,2.92.62l.41,3.83c.07.67.57,1.23,1.23,1.37l3.77.8c1.49.32,1.7,2.35.31,2.97Z"/></g></svg>