<?xml version="1.0" encoding="UTF-8"?><svg id="Capa_2" xmlns="http://www.w3.org/2000/svg" viewBox="0 0 722.14 277.34"><defs><style>.cls-1{fill:#f9aa2b;}.cls-2{fill:#7149c9;}.cls-3{fill:#05cca6;}</style></defs><g id="Capa_1-2"><path class="cls-1" d="M103.01,122.23c1.82,1.67,3.32-3.77,3.74-4.74,15.24-35.37,25.75-74.3,41.24-109.76,2.48-2.92,4.65-4.84,8.6-5.4,5.45-.78,22.5-.85,27.96-.14,6.51.85,6.69,9.16,7.43,14.57,6.97,50.28,7.97,101.67,15.01,152-.53,3.88,1.78,10.88-2.23,12.75-2.32,1.08-24.97,1.32-28.24.71-1.96-.37-3.52-1.89-4.28-3.72-4.24-31.12-5.91-62.54-9.25-93.75-.2-1.88-1.13-12.55-2.5-12.48l-40.66,100.32c-3.64,6.39-16.8,5.34-23.39,4.71-3.28-.31-6.91-1.18-8.67-4.33l-40.28-100.7-12.03,106.95c-.64.85-1.54,2.09-2.49,2.51-2.24.99-22.89.96-26.5.55-2.24-.26-3.95-.8-5.55-2.45-1.95-2.76-.26-15.84.08-20.07C4.77,113.28,8.66,61.64,15.01,15.75c.61-4.37,1.09-12.47,6.51-13.49,3.69-.7,29.39-.41,32.22.73,1.45.59,2.72,2.1,3.68,3.32l45.59,115.92Z"/><path class="cls-2" d="M671.33,206.61c-9.77,32.79-68.26,75.78-171.05,70.25-140.3-7.55-222.02-104.01-396.69-37.53-17.52,6.67-27.78,14.22-30.24,10.24-2.82-4.58,14.99-14.07,30.24-19.24,185.99-63.17,253.53,30.18,397.07,37.74,95.87,5.05,151.92-34.45,161.41-61.69"/><path class="cls-1" d="M537.78,49.51c31.42-3.56,51.21,18.2,53.26,48.18,1.42,20.66,1.83,56.72,0,77.09-.23,2.61-.31,5.86-3.55,6.45-6.07-1.01-28.03,3.91-31.01-1.99-.64-1.27-1.4-7.57-1.53-9.47-1.01-14.62.81-31.49,1.03-46.05.3-20.35-.59-43.81-27.53-41.53-15.21,1.29-20.45,15.16-21.49,28.5-1.74,22.15,1.77,46.21-.45,68.55-1.99,3.97-27.3,3.89-31.26,2.23-1.07-.45-2.07-1.3-2.76-2.24l-.34-121.34c1.66-4.83,23.76-4.41,28.13-3.45,7.97,1.76,2.43,9.35,6.21,13.77,8.8-9.85,17.61-17.16,31.28-18.7Z"/><path class="cls-1" d="M354.71,139.51c-4.47-5.45-37.27-10.84-46.69-14.8-19.24-8.09-25.05-20.28-22.89-40.86,5.05-48.12,87.91-43.82,101.07-4.32,6.36,19.1-16.27,11.29-27.48,12.49-8.57-10.35-17.7-17.08-31.92-12.51-12.35,3.97-9.84,14.52,1.24,19.2,22.32,9.43,59.71,6.5,62.86,39.14,2.51,26.02-11.09,41.19-35.84,45.91-21.52,4.11-50.82,1.78-65.45-16.62-3.66-4.6-14.06-23.07-4.87-25.7l26.34-.78c6,1.45,2.81,3.76,4.46,7.55,4.37,10.03,34.28,10.78,39.54,1.57,1.48-2.6,1.56-7.95-.34-10.27Z"/><path class="cls-1" d="M232.74,54.47c5.86-1.04,27.84-2.18,29.24,5.29.58,35.98-.67,72.03-.02,108.01.08,4.14,2.83,8.15-.91,12-3.17,3.26-23.59,3.2-28.48,2.4-2.44-.4-5.1-1.82-5.54-4.46.39-10.63-.41-21.27-.64-31.81-.54-24.17-2.01-53.02-.42-77.21.41-6.29-.19-12.99,6.78-14.22Z"/><path class="cls-1" d="M239.72.46c17.54-3.63,31.69,14.81,22.49,30.48-10.42,17.75-40.75,9.07-38.12-12.12.96-7.69,7.85-16.75,15.64-18.36Z"/><path class="cls-1" d="M412.74,54.47c5.86-1.04,27.84-2.18,29.24,5.29.58,35.98-.67,72.03-.02,108.01.08,4.14,2.83,8.15-.91,12-3.17,3.26-23.59,3.2-28.48,2.4-2.44-.4-5.1-1.82-5.54-4.46.39-10.63-.41-21.27-.64-31.81-.54-24.17-2.01-53.02-.42-77.21.41-6.29-.19-12.99,6.78-14.22Z"/><path class="cls-1" d="M419.72.46c17.54-3.63,31.69,14.81,22.49,30.48-10.42,17.75-40.75,9.07-38.12-12.12.96-7.69,7.85-16.75,15.64-18.36Z"/><path class="cls-3" d="M707.86,68.18c-27.02-32.9-76.39-27.12-94.5,11.44-18.2,38.75,4.59,92.19,43.45,108.13-.77,7.68-5.88,10.57-.53,17.52,1.69,2.2,6.18-.03,5.79,1.1l9.26.23c.56-1.88,5.06-.44,5.54-5.55.38-4.1-3.85-9.7-2.88-12.73,9.4-5.44,17.18-10.4,24.41-18.66,23.94-27.37,34.26-71.28,9.46-101.48ZM648.69,99.53l-5.22,6.12c-.99,1.16-2.87.37-2.76-1.14l.63-8.02c.05-.68-.34-1.31-.96-1.57l-7.43-3.07c-1.4-.58-1.24-2.62.23-2.97l7.82-1.88c.66-.16,1.14-.73,1.2-1.4l.63-8.02c.12-1.51,2.1-1.99,2.9-.7l4.21,6.85c.36.58,1.04.86,1.7.7l7.82-1.88c1.48-.36,2.55,1.39,1.56,2.54l-5.22,6.12c-.44.52-.5,1.26-.14,1.84l4.21,6.85c.79,1.29-.53,2.85-1.94,2.27l-7.43-3.07c-.63-.26-1.35-.09-1.79.43ZM676.14,144.67l-6.17.91c-.67.1-1.2.62-1.32,1.29l-1.04,6.15c-.25,1.5-2.27,1.8-2.95.44l-2.78-5.59c-.3-.61-.96-.95-1.63-.85l-6.18.91c-1.5.22-2.41-1.61-1.33-2.67l4.46-4.36c.49-.48.61-1.21.31-1.82l-2.78-5.59c-.68-1.36.78-2.79,2.13-2.09l5.53,2.89c.6.31,1.34.21,1.82-.27l4.46-4.37c1.08-1.06,2.9-.12,2.64,1.38l-1.04,6.15c-.11.67.22,1.34.82,1.65l5.53,2.89c1.35.7,1.01,2.72-.5,2.94ZM700.95,115.64l-3.51,1.56c-.62.28-.99.92-.92,1.6l.41,3.82c.16,1.51-1.71,2.34-2.72,1.22l-2.58-2.86c-.45-.5-1.18-.66-1.8-.38l-3.52,1.57c-1.39.62-2.75-.9-2-2.21l1.92-3.33c.34-.59.26-1.33-.19-1.83l-2.58-2.85c-1.02-1.13,0-2.9,1.49-2.58l3.76.8c.66.14,1.34-.16,1.68-.75l1.92-3.33c.76-1.32,2.76-.89,2.92.62l.41,3.83c.07.67.57,1.23,1.23,1.37l3.77.8c1.49.32,1.7,2.35.31,2.97Z"/></g></svg>